<svg width="300" height="300" viewBox="0 0 300 300" fill="none" xmlns="http://www.w3.org/2000/svg">
<path d="M0 47C0 21.0426 21.0426 0 47 0H253C278.957 0 300 21.0426 300 47V253C300 278.957 278.957 300 253 300H47C21.0426 300 0 278.957 0 253V47Z" fill="#155DFC"/>
<path d="M156.338 54.3472C156.338 45.1608 169.292 43.2183 171.986 52.0006L199.375 141.264C199.458 141.537 199.655 141.761 199.914 141.88L263.649 171.068C271.46 174.645 268.909 186.341 260.318 186.341H164.338C159.92 186.341 156.338 189.923 156.338 194.341V264.692C156.338 273.157 144.908 275.823 141.163 268.23L106.777 198.505C106.039 197.01 104.852 195.782 103.383 194.994L32.0621 156.743C24.7315 152.812 27.5248 141.693 35.8432 141.693H148.338C152.757 141.693 156.338 138.112 156.338 133.693V71.3467V54.3472Z" fill="white"/>
</svg>
